<?xml version="1.0" standalone="no"?>
<!DOCTYPE svg PUBLIC "-//W3C//DTD SVG 20010904//EN"
 "http://www.w3.org/TR/2001/REC-SVG-20010904/DTD/svg10.dtd">
<svg version="1.0" xmlns="http://www.w3.org/2000/svg"
 width="835.000000pt" height="835.000000pt" viewBox="0 0 835.000000 835.000000"
 preserveAspectRatio="xMidYMid meet">
<metadata>
Created by potrace 1.11, written by Peter Selinger 2001-2013
</metadata>
<g transform="translate(0.000000,835.000000) scale(0.100000,-0.100000)"
fill="#000000" stroke="none">
<path d="M3545 8311 c19 -153 25 -455 11 -591 -8 -78 -25 -207 -31 -241 -3
-13 -12 -59 -20 -101 -42 -220 -150 -577 -235 -773 -10 -22 -39 -89 -65 -150
-158 -365 -432 -841 -729 -1265 -216 -309 -494 -668 -501 -648 -2 7 -7 60 -9
118 -17 323 -57 565 -133 805 -52 163 -191 466 -194 420 0 -11 -2 -27 -3 -35
-2 -8 -6 -42 -10 -75 -3 -33 -8 -72 -11 -87 -3 -16 -7 -39 -9 -53 -19 -109
-81 -319 -144 -486 -72 -192 -122 -300 -397 -864 -169 -346 -271 -594 -341
-830 -24 -77 -50 -194 -73 -325 -39 -213 -46 -293 -46 -530 1 -237 11 -340 50
-505 9 -38 18 -77 20 -85 2 -8 20 -64 40 -125 83 -252 248 -535 453 -775 88
-103 298 -309 407 -400 50 -41 92 -78 95 -81 3 -3 73 -56 155 -117 83 -62 155
-115 160 -119 89 -68 597 -383 616 -383 5 0 3 12 -4 28 -100 196 -221 565
-253 767 -29 187 -38 433 -20 553 3 23 8 59 11 80 5 36 9 59 19 99 2 10 9 39
15 65 55 240 175 484 433 878 118 180 215 359 308 565 84 185 181 467 225 650
27 116 23 113 60 53 64 -107 149 -317 169 -418 15 -76 29 -148 33 -170 12 -68
11 -373 -2 -465 -7 -55 -12 -101 -10 -103 2 -2 32 32 66 75 334 419 553 1020
614 1683 6 62 6 369 1 400 -3 14 -7 47 -11 74 -3 27 -8 53 -11 58 -30 48 230
-160 390 -312 112 -107 313 -333 389 -438 86 -120 175 -254 237 -357 87 -143
231 -437 290 -590 23 -60 48 -124 55 -141 49 -115 140 -461 190 -724 14 -71
38 -277 50 -430 4 -52 5 -434 1 -500 -10 -151 -33 -341 -56 -456 -6 -28 -13
-64 -16 -80 -40 -224 -171 -606 -276 -807 -10 -20 -16 -37 -13 -37 20 0 319
184 485 298 140 96 409 301 450 342 3 3 37 32 75 65 95 80 347 330 418 414 32
37 65 76 75 87 69 76 217 282 304 424 222 361 385 813 432 1200 27 223 29 609
3 810 -85 656 -316 1270 -728 1935 -37 61 -73 115 -78 122 -6 7 -11 14 -11 17
0 3 -50 75 -111 161 -120 169 -272 364 -382 490 -104 118 -407 417 -407 402 0
-2 18 -58 39 -124 38 -115 73 -276 86 -393 7 -62 7 -267 0 -320 -3 -19 -7 -55
-10 -79 -21 -160 -88 -338 -172 -455 -48 -67 -104 -127 -113 -121 -4 3 -11 22
-15 42 -22 127 -201 650 -287 843 -13 30 -33 75 -44 100 -37 90 -202 408 -264
510 -392 653 -898 1162 -1440 1447 -79 42 -234 113 -245 113 -2 0 -2 -13 0
-29z"/>
</g>
</svg>
